<svg width="24" height="25" viewBox="0 0 24 25" fill="none" xmlns="http://www.w3.org/2000/svg">
<path fill-rule="evenodd" clip-rule="evenodd" d="M4.22676 4.93623C4.5291 4.63389 5.01929 4.63389 5.32163 4.93623L12 11.6146L18.6784 4.93623C18.9807 4.63389 19.4709 4.63389 19.7732 4.93623C20.0756 5.23857 20.0756 5.72876 19.7732 6.0311L13.0949 12.7095L19.7732 19.3878C20.0756 19.6902 20.0756 20.1804 19.7732 20.4827C19.4709 20.7851 18.9807 20.7851 18.6784 20.4827L12 13.8043L5.32163 20.4827C5.01929 20.7851 4.5291 20.7851 4.22676 20.4827C3.92441 20.1804 3.92441 19.6902 4.22676 19.3878L10.9051 12.7095L4.22676 6.0311C3.92441 5.72876 3.92441 5.23857 4.22676 4.93623Z" fill="#0D0D0D"/>
</svg>
