<svg viewBox="0 0 30 30" fill="none" xmlns="http://www.w3.org/2000/svg">
<path d="M15.0001 28.4543C22.3641 28.4543 28.3334 22.4849 28.3334 15.1209C28.3334 7.75693 22.3641 1.7876 15.0001 1.7876C7.63608 1.7876 1.66675 7.75693 1.66675 15.1209C1.66675 16.9596 2.04008 18.7116 2.71208 20.3049C3.08408 21.1849 3.26941 21.6249 3.29341 21.9583C3.31608 22.2916 3.21741 22.6569 3.02141 23.3889L1.66675 28.4543L6.73208 27.0996C7.46408 26.9036 7.82941 26.8063 8.16275 26.8276C8.49608 26.8516 8.93608 27.0369 9.81608 27.4089C11.457 28.1 13.2196 28.4554 15.0001 28.4543Z" stroke="#8D6A29" stroke-width="2" stroke-linecap="round" stroke-linejoin="round"/>
<path d="M10.4508 15.6234L11.6121 14.1821C12.1015 13.5741 12.7055 13.0088 12.7548 12.1981C12.7655 11.9941 12.6215 11.0768 12.3348 9.24077C12.2215 8.51944 11.5468 8.4541 10.9641 8.4541C10.2041 8.4541 9.82415 8.4541 9.44682 8.62744C8.96948 8.84477 8.48015 9.45677 8.37215 9.9701C8.28681 10.3768 8.35081 10.6568 8.47748 11.2168C9.01348 13.5941 10.2735 15.9421 12.2255 17.8954C14.1788 19.8474 16.5268 21.1074 18.9055 21.6434C19.4655 21.7701 19.7441 21.8341 20.1508 21.7488C20.6641 21.6421 21.2761 21.1514 21.4948 20.6741C21.6668 20.2968 21.6668 19.9168 21.6668 19.1568C21.6668 18.5728 21.6015 17.8994 20.8801 17.7861C19.0441 17.4981 18.1268 17.3554 17.9228 17.3661C17.1135 17.4141 16.5468 18.0194 15.9388 18.5088L14.4975 19.6688" stroke="#8D6A29" stroke-width="2" stroke-linecap="round" stroke-linejoin="round"/>
</svg>
