<svg viewBox="0 0 24 28" fill="none" xmlns="http://www.w3.org/2000/svg">
<path fill-rule="evenodd" clip-rule="evenodd" d="M12 2.76009C6.41708 2.76009 1.70757 6.81603 2.09116 11.8672C2.14618 12.5917 2.22842 13.2223 2.34047 13.7227C2.9058 16.2474 4.68035 18.7554 6.67912 20.8844C8.66087 22.9954 10.7709 24.6376 11.8612 25.434C11.9483 25.4977 12.0517 25.4977 12.1388 25.434C13.2291 24.6376 15.3391 22.9954 17.3209 20.8844C19.3196 18.7554 21.0942 16.2474 21.6595 13.7227C21.7716 13.2223 21.8538 12.5917 21.9088 11.8672C22.2924 6.81603 17.5829 2.76009 12 2.76009ZM0.0281939 12.0097C-0.461216 5.56507 5.49679 0.787598 12 0.787598C18.5032 0.787598 24.4612 5.56507 23.9718 12.0097C23.9132 12.7816 23.8219 13.5113 23.6823 14.1346C23.0045 17.1613 20.9451 19.9811 18.8619 22.2001C16.7616 24.4373 14.5416 26.1635 13.3966 26.9999C12.5673 27.6057 11.4327 27.6057 10.6034 26.9999C9.45842 26.1635 7.23836 24.4373 5.1381 22.2001C3.05485 19.9811 0.995454 17.1613 0.317708 14.1346C0.178125 13.5113 0.086814 12.7816 0.0281939 12.0097Z" fill="#8D6A29"/>
<path fill-rule="evenodd" clip-rule="evenodd" d="M12 10.6501C11.0481 10.6501 10.2764 11.386 10.2764 12.2938C10.2764 13.2016 11.0481 13.9375 12 13.9375C12.9519 13.9375 13.7236 13.2016 13.7236 12.2938C13.7236 11.386 12.9519 10.6501 12 10.6501ZM8.20799 12.2938C8.20799 10.2966 9.90573 8.67757 12 8.67757C14.0943 8.67757 15.792 10.2966 15.792 12.2938C15.792 14.291 14.0943 15.91 12 15.91C9.90573 15.91 8.20799 14.291 8.20799 12.2938Z" fill="#8D6A29"/>
</svg>
