<svg viewBox="0 0 28 22" fill="none" xmlns="http://www.w3.org/2000/svg">
<path fill-rule="evenodd" clip-rule="evenodd" d="M14.0001 2.39398C10.9808 2.39398 6.86845 2.65282 4.25698 2.84314C3.38971 2.90635 2.71803 3.59288 2.71803 4.43141V5.37897L13.1699 10.8688C13.6862 11.14 14.314 11.14 14.8302 10.8688L25.2821 5.37897V4.43141C25.2821 3.59288 24.6104 2.90635 23.7432 2.84314C21.1317 2.65282 17.0193 2.39398 14.0001 2.39398ZM25.2821 7.59755L15.8264 12.5642C14.6906 13.1608 13.3095 13.1608 12.1737 12.5642L2.71803 7.59755V17.8111C2.71803 18.6496 3.38971 19.3362 4.25698 19.3994C6.86845 19.5897 10.9808 19.8485 14.0001 19.8485C17.0193 19.8485 21.1317 19.5897 23.7432 19.3994C24.6104 19.3362 25.2821 18.6496 25.2821 17.8111V7.59755ZM4.09933 0.909482C6.71236 0.719045 10.8943 0.45459 14.0001 0.45459C17.1058 0.45459 21.2878 0.719045 23.9008 0.909482C25.8536 1.0518 27.3334 2.59577 27.3334 4.43141V17.8111C27.3334 19.6467 25.8537 21.1907 23.9008 21.333C21.2878 21.5235 17.1058 21.7879 14.0001 21.7879C10.8943 21.7879 6.71236 21.5235 4.09933 21.333C2.14651 21.1907 0.666748 19.6467 0.666748 17.8111V4.43141C0.666748 2.59577 2.14651 1.0518 4.09933 0.909482Z" fill="#8D6A29"/>
</svg>
