<svg viewBox="0 0 16 21" fill="none" xmlns="http://www.w3.org/2000/svg">
<path fill-rule="evenodd" clip-rule="evenodd" d="M9.42222 8.83815H14.4L10.6667 13.8673L6.57778 19.1304V12.5808H1.60001L5.71429 7.43466L9.42222 2.28852V8.83815ZM4.43345 6.48759L8.11825 1.37355C8.52168 0.813648 9.24567 0.575433 9.90887 0.784388C10.5721 0.993344 11.0222 1.60151 11.0222 2.28852V7.25922H14.4C15.0028 7.25922 15.5544 7.59355 15.827 8.1241C16.0996 8.65465 16.0469 9.29136 15.6907 9.77123L11.9574 14.8004C11.9505 14.8097 11.9435 14.8189 11.9364 14.828L7.84755 20.0911C7.43043 20.628 6.71303 20.843 6.0638 20.6257C5.41456 20.4083 4.97779 19.807 4.97779 19.1304V14.1597H1.60001C0.986918 14.1597 0.427735 13.814 0.160282 13.2696C-0.107172 12.7252 -0.0358601 12.0778 0.343888 11.6028L4.43345 6.48759Z" fill="#0D0D0D"/>
</svg>
