<svg viewBox="0 0 22 24" fill="none" xmlns="http://www.w3.org/2000/svg">
<path d="M10 9.3C8.59002 8.87963 7.08343 8.91422 5.69423 9.39886C4.30504 9.8835 3.10387 10.7936 2.26134 11.9997C1.41881 13.2059 0.977772 14.6469 1.00086 16.1181C1.02395 17.5892 1.51 19.0156 2.38997 20.1948C3.26994 21.374 4.49908 22.2459 5.9028 22.6867C7.30652 23.1275 8.81345 23.1148 10.2095 22.6503C11.6056 22.1859 12.8199 21.2934 13.6798 20.0996C14.5398 18.9058 15.0017 17.4713 15 16V9C16.3333 10.3333 18.3333 11 21 11V6C18.3333 6 16.3333 4.33333 15 1H10V16M10 16C10 15.6044 9.8827 15.2178 9.66293 14.8889C9.44317 14.56 9.13081 14.3036 8.76536 14.1522C8.39991 14.0009 7.99778 13.9613 7.60982 14.0384C7.22185 14.1156 6.86549 14.3061 6.58578 14.5858C6.30608 14.8655 6.1156 15.2219 6.03842 15.6098C5.96125 15.9978 6.00086 16.3999 6.15224 16.7654C6.30361 17.1308 6.55996 17.4432 6.88886 17.6629C7.21775 17.8827 7.60443 18 8 18C8.53043 18 9.03914 17.7893 9.41421 17.4142C9.78928 17.0391 10 16.5304 10 16Z" stroke="#0D0D0D" stroke-width="2" stroke-linecap="round" stroke-linejoin="round"/>
</svg>
