<svg viewBox="0 0 20 21" fill="none" xmlns="http://www.w3.org/2000/svg">
<path fill-rule="evenodd" clip-rule="evenodd" d="M10 2.24793C5.32682 2.24793 1.53846 6.03629 1.53846 10.7095C1.53846 15.3827 5.32682 19.171 10 19.171C14.6732 19.171 18.4615 15.3827 18.4615 10.7095C18.4615 6.03629 14.6732 2.24793 10 2.24793ZM0 10.7095C0 5.18663 4.47715 0.709473 10 0.709473C15.5228 0.709473 20 5.18663 20 10.7095C20 16.2323 15.5228 20.7095 10 20.7095C4.47715 20.7095 0 16.2323 0 10.7095Z" fill="#0D0D0D"/>
<path fill-rule="evenodd" clip-rule="evenodd" d="M10 4.81204C10.4249 4.81204 10.7693 5.15643 10.7693 5.58127V10.7095C10.7693 10.9135 10.6882 11.1091 10.544 11.2534L7.46703 14.3303C7.16662 14.6307 6.67957 14.6307 6.37917 14.3303C6.07877 14.0299 6.07877 13.5429 6.37917 13.2425L9.23081 10.3908V5.58127C9.23081 5.15643 9.57521 4.81204 10 4.81204Z" fill="#0D0D0D"/>
</svg>
